<svg width="43" height="43" viewBox="0 0 43 43" fill="none" xmlns="http://www.w3.org/2000/svg">
<rect x="-0.5" y="0.5" width="42" height="42" rx="15.5" transform="matrix(-1 0 0 1 42 0)" stroke="#898989"/>
<path d="M14.875 17.625H29.125" stroke="#898989" stroke-width="1.125" stroke-linejoin="round"/>
<path d="M25.75 13.875L23.5 17.625" stroke="#898989" stroke-width="1.125" stroke-linejoin="round"/>
<path d="M20.5 13.875L18.25 17.625" stroke="#898989" stroke-width="1.125" stroke-linejoin="round"/>
<path d="M14.875 21C14.875 17.6412 14.875 15.9619 15.9184 14.9184C16.9619 13.875 18.6412 13.875 22 13.875C25.3588 13.875 27.0381 13.875 28.0816 14.9184C29.125 15.9619 29.125 17.6412 29.125 21C29.125 24.3588 29.125 26.0381 28.0816 27.0816C27.0381 28.125 25.3588 28.125 22 28.125C18.6412 28.125 16.9619 28.125 15.9184 27.0816C14.875 26.0381 14.875 24.3588 14.875 21Z" stroke="#898989" stroke-width="1.125"/>
<path d="M24.2148 23.1711C24.1012 23.6412 23.5643 23.9733 22.4904 24.6376C21.4523 25.2798 20.9332 25.6009 20.5149 25.4719C20.342 25.4185 20.1844 25.3171 20.0574 25.1775C19.75 24.8399 19.75 24.1849 19.75 22.875C19.75 21.5651 19.75 20.9101 20.0574 20.5725C20.1844 20.4329 20.342 20.3315 20.5149 20.2781C20.9332 20.1491 21.4523 20.4702 22.4904 21.1124C23.5643 21.7767 24.1012 22.1088 24.2148 22.5789C24.2617 22.7729 24.2617 22.9771 24.2148 23.1711Z" stroke="#898989" stroke-width="1.125" stroke-linejoin="round"/>
</svg>
