<svg width="18" height="18" viewBox="0 0 18 18" fill="none" xmlns="http://www.w3.org/2000/svg">
<path d="M1.875 5.625H16.125" stroke="#898989" stroke-width="1.125" stroke-linejoin="round"/>
<path d="M12.75 1.875L10.5 5.625" stroke="#898989" stroke-width="1.125" stroke-linejoin="round"/>
<path d="M7.5 1.875L5.25 5.625" stroke="#898989" stroke-width="1.125" stroke-linejoin="round"/>
<path d="M1.875 9C1.875 5.64124 1.875 3.96186 2.91843 2.91843C3.96186 1.875 5.64124 1.875 9 1.875C12.3588 1.875 14.0381 1.875 15.0816 2.91843C16.125 3.96186 16.125 5.64124 16.125 9C16.125 12.3588 16.125 14.0381 15.0816 15.0816C14.0381 16.125 12.3588 16.125 9 16.125C5.64124 16.125 3.96186 16.125 2.91843 15.0816C1.875 14.0381 1.875 12.3588 1.875 9Z" stroke="#898989" stroke-width="1.125"/>
<path d="M11.2148 11.1711C11.1012 11.6412 10.5643 11.9733 9.49042 12.6376C8.4523 13.2798 7.93324 13.6009 7.51495 13.4719C7.34201 13.4185 7.18444 13.3171 7.05736 13.1775C6.75 12.8399 6.75 12.1849 6.75 10.875C6.75 9.56509 6.75 8.91013 7.05736 8.57246C7.18444 8.43286 7.34201 8.33151 7.51495 8.27815C7.93324 8.14908 8.4523 8.47018 9.49042 9.11237C10.5643 9.77669 11.1012 10.1088 11.2148 10.5789C11.2617 10.7729 11.2617 10.9771 11.2148 11.1711Z" stroke="#898989" stroke-width="1.125" stroke-linejoin="round"/>
</svg>
