<svg width="16" height="16" viewBox="0 0 16 16" fill="none" xmlns="http://www.w3.org/2000/svg">
<path d="M1.66675 5H14.3334" stroke="white" stroke-linejoin="round"/>
<path d="M11.3333 1.66675L9.33325 5.00008" stroke="white" stroke-linejoin="round"/>
<path d="M6.66675 1.66675L4.66675 5.00008" stroke="white" stroke-linejoin="round"/>
<path d="M1.66675 8.00008C1.66675 5.01452 1.66675 3.52174 2.59424 2.59424C3.52174 1.66675 5.01452 1.66675 8.00008 1.66675C10.9856 1.66675 12.4784 1.66675 13.4059 2.59424C14.3334 3.52174 14.3334 5.01452 14.3334 8.00008C14.3334 10.9856 14.3334 12.4784 13.4059 13.4059C12.4784 14.3334 10.9856 14.3334 8.00008 14.3334C5.01452 14.3334 3.52174 14.3334 2.59424 13.4059C1.66675 12.4784 1.66675 10.9856 1.66675 8.00008Z" stroke="white"/>
<path d="M9.96874 9.92978C9.86775 10.3476 9.39048 10.6429 8.43593 11.2334C7.51316 11.8042 7.05177 12.0896 6.67995 11.9749C6.52623 11.9275 6.38617 11.8374 6.27321 11.7133C6 11.4131 6 10.8309 6 9.66659C6 8.50222 6 7.92004 6.27321 7.61989C6.38617 7.49579 6.52623 7.4057 6.67995 7.35827C7.05177 7.24354 7.51316 7.52896 8.43593 8.09981C9.39048 8.69031 9.86775 8.98556 9.96874 9.40339C10.0104 9.57586 10.0104 9.75731 9.96874 9.92978Z" stroke="white" stroke-linejoin="round"/>
</svg>
