<svg width="16" height="18" viewBox="0 0 16 18" fill="none" xmlns="http://www.w3.org/2000/svg">
<path d="M0.897442 10.7955C0.737951 11.8103 1.451 12.5146 2.32404 12.8657C5.67111 14.2114 10.3289 14.2114 13.676 12.8657C14.549 12.5146 15.2621 11.8103 15.1026 10.7955C15.0045 10.1719 14.5199 9.6526 14.1608 9.1455C13.6905 8.47314 13.6437 7.73979 13.6437 6.95956C13.6437 3.94433 11.1169 1.5 8 1.5C4.8831 1.5 2.35634 3.94433 2.35634 6.95956C2.35628 7.73979 2.30954 8.47314 1.83921 9.1455C1.48013 9.6526 0.995459 10.1719 0.897442 10.7955Z" stroke="#999C9E" stroke-width="1.5" stroke-linecap="round" stroke-linejoin="round"/>
<path d="M5.75 15.75C6.3471 16.2164 7.1356 16.5 8 16.5C8.8644 16.5 9.6529 16.2164 10.25 15.75" stroke="#999C9E" stroke-width="1.5" stroke-linecap="round" stroke-linejoin="round"/>
</svg>
