<svg width="16" height="16" viewBox="0 0 16 16" fill="none" xmlns="http://www.w3.org/2000/svg">
<g clip-path="url(#clip0_1_1428)">
<path d="M11.3333 5.99992C11.3317 4.02852 11.3019 3.00739 10.7281 2.3082C10.6173 2.17318 10.4934 2.04937 10.3584 1.93856C9.62086 1.33325 8.52503 1.33325 6.33337 1.33325C4.14172 1.33325 3.04589 1.33325 2.30833 1.93856C2.1733 2.04937 2.04949 2.17318 1.93868 2.3082C1.33337 3.04577 1.33337 4.1416 1.33337 6.33325C1.33337 8.52491 1.33337 9.62073 1.93868 10.3583C2.04949 10.4933 2.1733 10.6171 2.30833 10.7279C3.00751 11.3018 4.02865 11.3316 6.00004 11.3332" stroke="#999C9E" stroke-linecap="round" stroke-linejoin="round"/>
<path d="M9.33321 5.49976C9.05707 5.49976 8.83321 5.72361 8.83321 5.99976C8.83321 6.2759 9.05707 6.49976 9.33321 6.49976V5.49976ZM11.3332 6.49976C11.6094 6.49976 11.8332 6.2759 11.8332 5.99976C11.8332 5.72361 11.6094 5.49976 11.3332 5.49976V6.49976ZM6.49988 9.33309C6.49988 9.05695 6.27602 8.83309 5.99988 8.83309C5.72374 8.83309 5.49988 9.05695 5.49988 9.33309H6.49988ZM5.49988 11.3331C5.49988 11.6092 5.72374 11.8331 5.99988 11.8331C6.27602 11.8331 6.49988 11.6092 6.49988 11.3331H5.49988ZM7.70518 6.49551C7.97898 6.45961 8.17183 6.20854 8.13593 5.93475C8.10002 5.66095 7.84896 5.4681 7.57516 5.504L7.70518 6.49551ZM6.50376 6.41737L6.18611 6.03124L6.18611 6.03124L6.50376 6.41737ZM5.50967 7.23463C5.45529 7.50536 5.63068 7.76892 5.90141 7.8233C6.17215 7.87768 6.43571 7.70229 6.49009 7.43155L5.50967 7.23463ZM14.1763 7.43155C14.2307 7.70229 14.4943 7.87768 14.765 7.8233C15.0357 7.76892 15.2111 7.50536 15.1568 7.23463L14.1763 7.43155ZM14.1627 6.41737L13.845 6.80351L13.845 6.80351L14.1627 6.41737ZM13.0913 5.504C12.8175 5.4681 12.5664 5.66095 12.5305 5.93475C12.4946 6.20854 12.6874 6.45961 12.9612 6.49551L13.0913 5.504ZM12.9612 14.1707C12.6874 14.2066 12.4946 14.4576 12.5305 14.7314C12.5664 15.0052 12.8175 15.1981 13.0913 15.1622L12.9612 14.1707ZM14.1627 14.2488L14.4803 14.6349L14.1627 14.2488ZM15.1568 13.4316C15.2111 13.1608 15.0357 12.8973 14.765 12.8429C14.4943 12.7885 14.2307 12.9639 14.1763 13.2346L15.1568 13.4316ZM6.49009 13.2346C6.43571 12.9639 6.17215 12.7885 5.90142 12.8429C5.63068 12.8973 5.45529 13.1608 5.50967 13.4316L6.49009 13.2346ZM6.50376 14.2488L6.8214 13.8627L6.8214 13.8627L6.50376 14.2488ZM7.57516 15.1622C7.84896 15.1981 8.10002 15.0052 8.13593 14.7314C8.17183 14.4576 7.97898 14.2066 7.70518 14.1707L7.57516 15.1622ZM9.33321 14.1664C9.05707 14.1664 8.83321 14.3903 8.83321 14.6664C8.83321 14.9426 9.05707 15.1664 9.33321 15.1664V14.1664ZM11.3332 15.1664C11.6094 15.1664 11.8332 14.9426 11.8332 14.6664C11.8332 14.3903 11.6094 14.1664 11.3332 14.1664V15.1664ZM15.1665 9.33309C15.1665 9.05695 14.9427 8.83309 14.6665 8.83309C14.3904 8.83309 14.1665 9.05695 14.1665 9.33309H15.1665ZM14.1665 11.3331C14.1665 11.6092 14.3904 11.8331 14.6665 11.8331C14.9427 11.8331 15.1665 11.6092 15.1665 11.3331H14.1665ZM9.33321 6.49976H11.3332V5.49976H9.33321V6.49976ZM5.49988 9.33309V11.3331H6.49988V9.33309H5.49988ZM7.57516 5.504C7.03146 5.5753 6.56746 5.71752 6.18611 6.03124L6.82141 6.80351C6.99844 6.65787 7.25156 6.555 7.70518 6.49551L7.57516 5.504ZM6.49009 7.43155C6.55432 7.11175 6.65807 6.93787 6.82141 6.80351L6.18611 6.03124C5.79978 6.34905 5.60623 6.75388 5.50967 7.23463L6.49009 7.43155ZM15.1568 7.23463C15.0602 6.75388 14.8666 6.34905 14.4803 6.03124L13.845 6.80351C14.0084 6.93787 14.1121 7.11175 14.1763 7.43155L15.1568 7.23463ZM12.9612 6.49551C13.4149 6.555 13.668 6.65787 13.845 6.80351L14.4803 6.03124C14.099 5.71752 13.635 5.5753 13.0913 5.504L12.9612 6.49551ZM13.0913 15.1622C13.635 15.0909 14.099 14.9487 14.4803 14.6349L13.845 13.8627C13.668 14.0083 13.4149 14.1112 12.9612 14.1707L13.0913 15.1622ZM14.1763 13.2346C14.1121 13.5544 14.0084 13.7283 13.845 13.8627L14.4803 14.6349C14.8666 14.3171 15.0602 13.9123 15.1568 13.4316L14.1763 13.2346ZM5.50967 13.4316C5.60623 13.9123 5.79978 14.3171 6.18611 14.6349L6.8214 13.8627C6.65807 13.7283 6.55432 13.5544 6.49009 13.2346L5.50967 13.4316ZM7.70518 14.1707C7.25156 14.1112 6.99844 14.0083 6.8214 13.8627L6.18611 14.6349C6.56746 14.9487 7.03146 15.0909 7.57516 15.1622L7.70518 14.1707ZM9.33321 15.1664H11.3332V14.1664H9.33321V15.1664ZM14.1665 9.33309V11.3331H15.1665V9.33309H14.1665Z" fill="#999C9E"/>
</g>
<defs>
<clipPath id="clip0_1_1428">
<rect width="16" height="16" fill="white"/>
</clipPath>
</defs>
</svg>
