<svg width="20" height="20" viewBox="0 0 20 20" fill="none" xmlns="http://www.w3.org/2000/svg">
<path d="M12.264 3.39324C14.1691 4.47554 15.6662 5.32605 16.7327 6.10513C17.8066 6.88957 18.6008 7.70948 18.8852 8.79041C19.0939 9.58314 19.0939 10.417 18.8852 11.2097C18.6008 12.2907 17.8066 13.1106 16.7327 13.895C15.6662 14.6741 14.1691 15.5246 12.2641 16.6069L12.264 16.6069C10.4238 17.6524 8.87191 18.5341 7.6938 19.0351C6.50622 19.5403 5.42355 19.7963 4.37129 19.4981C3.59798 19.279 2.89435 18.863 2.32753 18.2912C1.55826 17.515 1.24947 16.4423 1.10338 15.1513C0.958353 13.8698 0.958362 12.1922 0.958374 10.0585V10.0585V9.94163V9.94162C0.958362 7.80793 0.958353 6.13034 1.10338 4.84882C1.24947 3.55785 1.55826 2.48512 2.32753 1.70898C2.89435 1.1371 3.59798 0.721178 4.37129 0.502044C5.42355 0.203863 6.50622 0.459878 7.6938 0.964998C8.8719 1.46609 10.4237 2.34772 12.264 3.39324L12.264 3.39324Z" fill="white"/>
</svg>
