<svg width="14" height="16" viewBox="0 0 14 16" fill="none" xmlns="http://www.w3.org/2000/svg">
<path d="M6.999 1.33319C4.99382 1.33319 3.69366 2.67919 2.15601 3.16979C1.53079 3.36928 1.21818 3.46902 1.09167 3.60962C0.965158 3.75023 0.928111 3.95569 0.854018 4.36661C0.0611595 8.76385 1.79414 12.8292 5.92707 14.4115C6.37113 14.5815 6.59316 14.6665 7.00119 14.6665C7.40923 14.6665 7.63124 14.5815 8.07528 14.4115C12.2079 12.8292 13.9393 8.76384 13.1462 4.36661C13.0721 3.95562 13.035 3.75012 12.9085 3.60952C12.7819 3.46891 12.4693 3.36922 11.8441 3.16985C10.3059 2.67929 9.00426 1.33319 6.999 1.33319Z" stroke="#999C9E" stroke-linecap="round" stroke-linejoin="round"/>
<path d="M5.38695 10.5718L5.18413 11.0289H5.18413L5.38695 10.5718ZM4.75556 9.89535L4.28919 10.0756H4.28919L4.75556 9.89535ZM9.24461 9.89535L9.71097 10.0756V10.0756L9.24461 9.89535ZM8.61321 10.5718L8.81604 11.0289H8.81604L8.61321 10.5718ZM8.61321 7.01214L8.81604 6.55513L8.61321 7.01214ZM9.24461 7.68864L9.71097 7.50834V7.50834L9.24461 7.68864ZM5.38695 7.01214L5.18413 6.55513L5.18413 6.55513L5.38695 7.01214ZM4.75556 7.68864L4.28919 7.50834V7.50834L4.75556 7.68864ZM5.33341 6.91699C5.33341 7.19313 5.55727 7.41699 5.83341 7.41699C6.10956 7.41699 6.33341 7.19313 6.33341 6.91699H5.33341ZM7.66675 6.91699C7.66675 7.19313 7.89061 7.41699 8.16675 7.41699C8.44289 7.41699 8.66675 7.19313 8.66675 6.91699H7.66675ZM6.41675 7.41699H7.58341V6.41699H6.41675V7.41699ZM7.58341 10.167H6.41675V11.167H7.58341V10.167ZM6.41675 10.167C6.13762 10.167 5.9551 10.1667 5.81485 10.1564C5.67982 10.1466 5.62262 10.1294 5.58977 10.1148L5.18413 11.0289C5.36568 11.1094 5.55158 11.1399 5.74195 11.1538C5.9271 11.1673 6.15227 11.167 6.41675 11.167V10.167ZM4.16675 8.79199C4.16675 9.07682 4.16651 9.31381 4.17886 9.50771C4.19145 9.70548 4.21859 9.89302 4.28919 10.0756L5.22192 9.71505C5.20371 9.66795 5.18645 9.59503 5.17684 9.44416C5.16698 9.28942 5.16675 9.08959 5.16675 8.79199H4.16675ZM5.58977 10.1148C5.43149 10.0446 5.29524 9.9047 5.22192 9.71505L4.28919 10.0756C4.45269 10.4986 4.77068 10.8454 5.18413 11.0289L5.58977 10.1148ZM8.83342 8.79199C8.83342 9.08959 8.83318 9.28942 8.82332 9.44416C8.81372 9.59503 8.79645 9.66795 8.77825 9.71505L9.71097 10.0756C9.78157 9.89302 9.80871 9.70548 9.8213 9.50771C9.83365 9.31381 9.83342 9.07682 9.83342 8.79199H8.83342ZM7.58341 11.167C7.84789 11.167 8.07307 11.1673 8.25822 11.1538C8.44859 11.1399 8.63448 11.1094 8.81604 11.0289L8.41039 10.1148C8.37754 10.1294 8.32034 10.1466 8.18531 10.1564C8.04506 10.1667 7.86254 10.167 7.58341 10.167V11.167ZM8.77825 9.71505C8.70493 9.9047 8.56867 10.0446 8.41039 10.1148L8.81604 11.0289C9.22948 10.8454 9.54747 10.4986 9.71097 10.0756L8.77825 9.71505ZM7.58341 7.41699C7.86254 7.41699 8.04506 7.4173 8.18531 7.42756C8.32034 7.43743 8.37754 7.45458 8.41039 7.46916L8.81604 6.55513C8.63448 6.47455 8.44859 6.44413 8.25822 6.43022C8.07307 6.41668 7.84789 6.41699 7.58341 6.41699V7.41699ZM9.83342 8.79199C9.83342 8.50717 9.83365 8.27017 9.8213 8.07627C9.80871 7.8785 9.78157 7.69096 9.71097 7.50834L8.77825 7.86893C8.79645 7.91603 8.81372 7.98895 8.82332 8.13982C8.83318 8.29457 8.83342 8.49439 8.83342 8.79199H9.83342ZM8.41039 7.46916C8.56867 7.5394 8.70493 7.67928 8.77825 7.86893L9.71097 7.50834C9.54747 7.08543 9.22948 6.73862 8.81604 6.55513L8.41039 7.46916ZM6.41675 6.41699C6.15227 6.41699 5.9271 6.41668 5.74195 6.43022C5.55158 6.44413 5.36568 6.47455 5.18413 6.55513L5.58977 7.46916C5.62262 7.45458 5.67982 7.43743 5.81485 7.42756C5.9551 7.4173 6.13762 7.41699 6.41675 7.41699V6.41699ZM5.16675 8.79199C5.16675 8.49439 5.16698 8.29457 5.17684 8.13982C5.18645 7.98895 5.20371 7.91603 5.22192 7.86893L4.28919 7.50834C4.21859 7.69096 4.19145 7.8785 4.17886 8.07627C4.16651 8.27017 4.16675 8.50717 4.16675 8.79199H5.16675ZM5.18413 6.55513C4.77068 6.73862 4.45269 7.08543 4.28919 7.50834L5.22192 7.86893C5.29524 7.67928 5.43149 7.5394 5.58977 7.46916L5.18413 6.55513ZM6.33341 6.91699V5.79199H5.33341V6.91699H6.33341ZM7.66675 5.79199V6.91699H8.66675V5.79199H7.66675ZM7.00008 5.16699C7.38557 5.16699 7.66675 5.4638 7.66675 5.79199H8.66675C8.66675 4.87755 7.90326 4.16699 7.00008 4.16699V5.16699ZM6.33341 5.79199C6.33341 5.4638 6.6146 5.16699 7.00008 5.16699V4.16699C6.0969 4.16699 5.33341 4.87755 5.33341 5.79199H6.33341Z" fill="#999C9E"/>
</svg>
