<svg width="14" height="14" viewBox="0 0 14 14" fill="none" xmlns="http://www.w3.org/2000/svg">
<path d="M8.00775 2.00919L9.0343 4.07926C9.17429 4.36742 9.54758 4.64382 9.86254 4.69675L11.7232 5.00844C12.913 5.20839 13.193 6.07876 12.3356 6.93737L10.8891 8.39583C10.6441 8.64283 10.51 9.11918 10.5858 9.46027L10.9999 11.2657C11.3265 12.6948 10.5741 13.2476 9.3201 12.5007L7.57613 11.4598C7.26116 11.2716 6.74205 11.2716 6.42126 11.4598L4.67728 12.5007C3.42909 13.2476 2.67084 12.6889 2.99747 11.2657L3.41159 9.46027C3.48741 9.11918 3.35326 8.64283 3.10829 8.39583L1.66178 6.93737C0.810209 6.07876 1.08435 5.20839 2.27421 5.00844L4.13484 4.69675C4.44397 4.64382 4.81727 4.36742 4.95725 4.07926L5.9838 2.00919C6.54374 0.885936 7.45364 0.885936 8.00775 2.00919Z" stroke="#2E2E2E" stroke-width="0.875" stroke-linecap="round" stroke-linejoin="round"/>
</svg>
