<svg width="16" height="14" viewBox="0 0 16 14" fill="none" xmlns="http://www.w3.org/2000/svg">
<path d="M1.33337 4.33333C1.33337 5.22785 6.73749 7.66667 8.00004 7.66667C9.2626 7.66667 14.6667 5.22785 14.6667 4.33333C14.6667 3.43881 9.2626 1 8.00004 1C6.73749 1 1.33337 3.43881 1.33337 4.33333Z" stroke="white" stroke-linecap="round" stroke-linejoin="round"/>
<path d="M4 6.33325L4.83522 10.1995C4.89243 10.4643 5.02449 10.7117 5.24471 10.8695C6.72775 11.9323 9.27225 11.9323 10.7553 10.8695C10.9755 10.7117 11.1076 10.4643 11.1648 10.1995L12 6.33325" stroke="white" stroke-linecap="round" stroke-linejoin="round"/>
<path d="M14.1666 5.33325C14.1666 5.05711 13.9428 4.83325 13.6666 4.83325C13.3905 4.83325 13.1666 5.05711 13.1666 5.33325H14.1666ZM12.7142 12.1755L13.2007 12.2911L12.7142 12.1755ZM14.619 12.1755L15.1055 12.06L15.1055 12.06L14.619 12.1755ZM13.1666 5.33325V10.0047H14.1666V5.33325H13.1666ZM13.2007 12.2911C13.2973 11.8846 13.4634 11.5131 13.6412 11.1651C13.8041 10.8464 14.0175 10.4775 14.1317 10.1884L13.2016 9.82105C13.1103 10.0522 12.9576 10.3053 12.7507 10.7101C12.5587 11.0858 12.3514 11.5396 12.2278 12.06L13.2007 12.2911ZM15.1055 12.06C14.9818 11.5396 14.7745 11.0858 14.5825 10.7101C14.3757 10.3053 14.2229 10.0522 14.1317 9.82105L13.2016 10.1884C13.3158 10.4775 13.5291 10.8464 13.6921 11.1651C13.8698 11.5131 14.036 11.8846 14.1325 12.2911L15.1055 12.06ZM13.8769 12.4999H13.4563V13.4999H13.8769V12.4999ZM12.2278 12.06C12.1455 12.4062 12.0962 12.8642 12.4223 13.1913C12.575 13.3445 12.7634 13.4164 12.9292 13.4532C13.0945 13.4899 13.276 13.4999 13.4563 13.4999V12.4999C13.3041 12.4999 13.2067 12.4904 13.1457 12.4769C13.0853 12.4635 13.0999 12.4546 13.1304 12.4852C13.1689 12.5238 13.1694 12.5598 13.1675 12.5396C13.1646 12.5083 13.1669 12.4335 13.2007 12.2911L12.2278 12.06ZM14.1325 12.2911C14.1664 12.4335 14.1686 12.5083 14.1657 12.5396C14.1638 12.5598 14.1644 12.5238 14.2028 12.4852C14.2333 12.4546 14.248 12.4635 14.1875 12.4769C14.1266 12.4904 14.0291 12.4999 13.8769 12.4999V13.4999C14.0573 13.4999 14.2387 13.4899 14.404 13.4532C14.5699 13.4164 14.7582 13.3445 14.911 13.1913C15.2371 12.8642 15.1877 12.4062 15.1055 12.06L14.1325 12.2911Z" fill="white"/>
</svg>
