<svg width="16" height="16" viewBox="0 0 16 16" fill="none" xmlns="http://www.w3.org/2000/svg">
<path d="M1.33337 5.33333C1.33337 6.22785 6.73749 8.66667 8.00004 8.66667C9.2626 8.66667 14.6667 6.22785 14.6667 5.33333C14.6667 4.43881 9.2626 2 8.00004 2C6.73749 2 1.33337 4.43881 1.33337 5.33333Z" stroke="#898989" stroke-linecap="round" stroke-linejoin="round"/>
<path d="M4 7.33325L4.83522 11.1995C4.89243 11.4643 5.02449 11.7117 5.24471 11.8695C6.72775 12.9323 9.27225 12.9323 10.7553 11.8695C10.9755 11.7117 11.1076 11.4643 11.1648 11.1995L12 7.33325" stroke="#898989" stroke-linecap="round" stroke-linejoin="round"/>
<path d="M14.1666 6.33325C14.1666 6.05711 13.9428 5.83325 13.6666 5.83325C13.3905 5.83325 13.1666 6.05711 13.1666 6.33325H14.1666ZM12.7142 13.1755L13.2007 13.2911L12.7142 13.1755ZM14.619 13.1755L15.1055 13.06L14.619 13.1755ZM13.1666 6.33325V11.0047H14.1666V6.33325H13.1666ZM13.2007 13.2911C13.2973 12.8846 13.4634 12.5131 13.6412 12.1651C13.8041 11.8464 14.0175 11.4775 14.1317 11.1884L13.2016 10.8211C13.1103 11.0522 12.9576 11.3053 12.7507 11.7101C12.5587 12.0858 12.3514 12.5396 12.2278 13.06L13.2007 13.2911ZM15.1055 13.06C14.9818 12.5396 14.7745 12.0858 14.5825 11.7101C14.3757 11.3053 14.2229 11.0522 14.1317 10.8211L13.2016 11.1884C13.3158 11.4775 13.5291 11.8464 13.6921 12.1651C13.8698 12.5131 14.036 12.8846 14.1325 13.2911L15.1055 13.06ZM13.8769 13.4999H13.4563V14.4999H13.8769V13.4999ZM12.2278 13.06C12.1455 13.4062 12.0962 13.8642 12.4223 14.1913C12.575 14.3445 12.7634 14.4164 12.9292 14.4532C13.0945 14.4899 13.276 14.4999 13.4563 14.4999V13.4999C13.3041 13.4999 13.2067 13.4904 13.1457 13.4769C13.0853 13.4635 13.0999 13.4546 13.1304 13.4852C13.1689 13.5238 13.1694 13.5598 13.1675 13.5396C13.1646 13.5083 13.1669 13.4335 13.2007 13.2911L12.2278 13.06ZM14.1325 13.2911C14.1664 13.4335 14.1686 13.5083 14.1657 13.5396C14.1638 13.5598 14.1644 13.5238 14.2028 13.4852C14.2333 13.4546 14.248 13.4635 14.1875 13.4769C14.1266 13.4904 14.0291 13.4999 13.8769 13.4999V14.4999C14.0573 14.4999 14.2387 14.4899 14.404 14.4532C14.5699 14.4164 14.7582 14.3445 14.911 14.1913C15.2371 13.8642 15.1877 13.4062 15.1055 13.06L14.1325 13.2911Z" fill="#898989"/>
</svg>
