<svg width="14" height="14" viewBox="0 0 14 14" fill="none" xmlns="http://www.w3.org/2000/svg">
<path d="M0.857145 10.1906C0.68629 10.3615 0.68629 10.6385 0.857145 10.8094C1.028 10.9802 1.30501 10.9802 1.47586 10.8094L0.857145 10.1906ZM5.4819 7.65232L5.2086 7.99395L5.4819 7.65232ZM6.71825 8.6414L6.44495 8.98303L6.71825 8.6414ZM8.31904 8.50548L7.99205 8.21482L8.31904 8.50548ZM12.5768 4.37399C12.7374 4.1934 12.7211 3.91687 12.5405 3.75634C12.3599 3.59582 12.0834 3.61208 11.9228 3.79267L12.5768 4.37399ZM7.56447 9.1131L7.60148 9.54903H7.60149L7.56447 9.1131ZM4.67754 7.19922L4.70173 7.63605H4.70173L4.67754 7.19922ZM10.4998 3.0625C10.2582 3.0625 10.0623 3.25838 10.0623 3.5C10.0623 3.74162 10.2582 3.9375 10.4998 3.9375V3.0625ZM12.3957 5.83334C12.3957 6.07496 12.5915 6.27084 12.8332 6.27084C13.0748 6.27084 13.2707 6.07496 13.2707 5.83334H12.3957ZM12.6623 3.67085L12.9717 3.3615L12.9717 3.3615L12.6623 3.67085ZM2.9165 4.22917C2.67488 4.22917 2.479 4.42504 2.479 4.66667C2.479 4.90829 2.67488 5.10417 2.9165 5.10417V4.22917ZM6.4165 5.10417C6.65813 5.10417 6.854 4.90829 6.854 4.66667C6.854 4.42504 6.65813 4.22917 6.4165 4.22917V5.10417ZM1.47586 10.8094L4.23749 8.04773L3.61877 7.42901L0.857145 10.1906L1.47586 10.8094ZM5.2086 7.99395L6.44495 8.98303L6.99156 8.29977L5.7552 7.31069L5.2086 7.99395ZM8.64603 8.79614L12.5768 4.37399L11.9228 3.79267L7.99205 8.21482L8.64603 8.79614ZM6.44495 8.98303C6.64031 9.13932 6.81982 9.28407 6.98156 9.38186C7.15409 9.48619 7.35735 9.56976 7.60148 9.54903L7.52746 8.67717C7.5271 8.6772 7.52707 8.67719 7.52727 8.67719C7.52747 8.67719 7.52757 8.67721 7.52746 8.6772C7.52743 8.67719 7.52497 8.67694 7.51928 8.67521C7.50667 8.67137 7.48046 8.66101 7.43432 8.63311C7.33331 8.57203 7.2057 8.47108 6.99156 8.29977L6.44495 8.98303ZM7.99205 8.21482C7.80986 8.41978 7.7011 8.5408 7.61183 8.61804C7.57105 8.65332 7.54697 8.66795 7.53519 8.67386C7.52987 8.67652 7.52748 8.67719 7.52745 8.6772C7.52735 8.67723 7.52744 8.6772 7.52764 8.67716C7.52784 8.67712 7.52782 8.67714 7.52746 8.67717L7.60149 9.54903C7.84562 9.5283 8.03188 9.41166 8.18435 9.27973C8.32728 9.15607 8.47982 8.98313 8.64603 8.79614L7.99205 8.21482ZM4.23749 8.04773C4.42131 7.86391 4.53028 7.75613 4.61857 7.68791C4.65878 7.65684 4.68223 7.64413 4.69372 7.63902C4.69894 7.6367 4.70134 7.63611 4.7015 7.63607C4.70154 7.63606 4.70135 7.63608 4.70173 7.63605L4.65334 6.76239C4.41968 6.77534 4.23638 6.87744 4.08357 6.99552C3.9406 7.10599 3.78616 7.26162 3.61877 7.42901L4.23749 8.04773ZM5.7552 7.31069C5.57035 7.16281 5.39967 7.02518 5.24538 6.93118C5.08046 6.8307 4.88701 6.74945 4.65334 6.76239L4.70173 7.63605C4.70211 7.63603 4.70193 7.63604 4.70197 7.63605C4.70213 7.63607 4.70458 7.63639 4.71002 7.63812C4.722 7.64193 4.74672 7.65197 4.79011 7.67841C4.88539 7.73646 5.0056 7.83155 5.2086 7.99395L5.7552 7.31069ZM10.4998 3.9375H11.6665V3.0625H10.4998V3.9375ZM12.3957 4.66667V5.83334H13.2707V4.66667H12.3957ZM11.6665 3.9375C11.9539 3.9375 12.1254 3.93843 12.2483 3.95496C12.3046 3.96253 12.3328 3.97145 12.3455 3.97668C12.3485 3.97789 12.3504 3.97883 12.3515 3.97942C12.3526 3.98 12.3531 3.98032 12.3532 3.98036C12.3532 3.98038 12.3531 3.98029 12.3529 3.98012C12.3527 3.97996 12.3527 3.97995 12.353 3.98021L12.9717 3.3615C12.7914 3.18123 12.5722 3.11564 12.3649 3.08776C12.1701 3.06157 11.9291 3.0625 11.6665 3.0625V3.9375ZM13.2707 4.66667C13.2707 4.40405 13.2716 4.16307 13.2454 3.9683C13.2175 3.76093 13.1519 3.54176 12.9717 3.3615L12.353 3.98021C12.3532 3.98048 12.3532 3.98049 12.353 3.98029C12.3529 3.98009 12.3528 3.97995 12.3528 3.97999C12.3528 3.98003 12.3532 3.98053 12.3538 3.98164C12.3543 3.98277 12.3553 3.9847 12.3565 3.98765C12.3617 4.00035 12.3706 4.02856 12.3782 4.08489C12.3947 4.20781 12.3957 4.37931 12.3957 4.66667H13.2707ZM2.9165 5.10417H6.4165V4.22917H2.9165V5.10417Z" fill="#4CAF50"/>
</svg>
