<svg width="31" height="25" viewBox="0 0 31 25" fill="none" xmlns="http://www.w3.org/2000/svg">
<path d="M26.459 0H30.9395L21.6153 8.99057C18.2386 12.2447 12.7639 12.2447 9.38479 8.99057L0.0569401 0H4.54104L11.625 6.8296C12.6572 7.82023 14.0481 8.37555 15.4973 8.37555C16.9465 8.37555 18.3374 7.82023 19.3696 6.8296L26.459 0Z" fill="#2E2E2E"/>
<path d="M4.4835 25H0L9.38477 15.954C12.7615 12.6999 18.2361 12.6999 21.6152 15.954L31 25H26.5195L19.375 18.115C18.3429 17.1243 16.9519 16.569 15.5027 16.569C14.0536 16.569 12.6626 17.1243 11.6304 18.115L4.4835 25Z" fill="#2E2E2E"/>
</svg>
