<svg width="31" height="25" viewBox="0 0 31 25" fill="none" xmlns="http://www.w3.org/2000/svg">
<path d="M26.4591 0H30.9396L21.6154 8.99057C18.2387 12.2447 12.764 12.2447 9.38491 8.99057L0.0570621 0H4.54116L11.6251 6.8296C12.6573 7.82023 14.0483 8.37555 15.4974 8.37555C16.9466 8.37555 18.3376 7.82023 19.3697 6.8296L26.4591 0Z" fill="white"/>
<path d="M4.48362 25H0.00012207L9.38489 15.954C12.7616 12.6999 18.2362 12.6999 21.6154 15.954L31.0001 25H26.5197L19.3751 18.115C18.343 17.1243 16.952 16.569 15.5028 16.569C14.0537 16.569 12.6627 17.1243 11.6306 18.115L4.48362 25Z" fill="white"/>
</svg>
